<svg xmlns="http://www.w3.org/2000/svg" xmlns:xlink="http://www.w3.org/1999/xlink" width="500" zoomAndPan="magnify" viewBox="0 0 375 374.999991" height="500" preserveAspectRatio="xMidYMid meet" version="1.0"><defs><g/><clipPath id="c94f4fc226"><path d="M 37.5 37.5 L 337.5 37.5 L 337.5 337.5 L 37.5 337.5 Z M 37.5 37.5 " clip-rule="nonzero"/></clipPath><clipPath id="7dcaf092d2"><path d="M 187.5 37.5 C 104.65625 37.5 37.5 104.65625 37.5 187.5 C 37.5 270.34375 104.65625 337.5 187.5 337.5 C 270.34375 337.5 337.5 270.34375 337.5 187.5 C 337.5 104.65625 270.34375 37.5 187.5 37.5 Z M 187.5 37.5 " clip-rule="nonzero"/></clipPath><clipPath id="9f10e58379"><path d="M 53 203 L 105 203 L 105 267 L 53 267 Z M 53 203 " clip-rule="nonzero"/></clipPath><clipPath id="e1ae6575e6"><path d="M 72.941406 203.027344 L 104.066406 214.289062 L 85.105469 266.695312 L 53.980469 255.433594 Z M 72.941406 203.027344 " clip-rule="nonzero"/></clipPath></defs><rect x="-37.5" width="450" fill="#ffffff" y="-37.499999" height="449.999989" fill-opacity="1"/><rect x="-37.5" width="450" fill="#000000" y="-37.499999" height="449.999989" fill-opacity="1"/><g clip-path="url(#c94f4fc226)"><g clip-path="url(#7dcaf092d2)"><path fill="#c6ff35" d="M 37.5 37.5 L 337.5 37.5 L 337.5 337.5 L 37.5 337.5 Z M 37.5 37.5 " fill-opacity="1" fill-rule="nonzero"/></g></g><g fill="#000000" fill-opacity="1"><g transform="translate(66.69077, 216.120696)"><g><path d="M 83.609375 0 L 79.078125 -15.15625 L 41.40625 -15.15625 L 36.875 0 L 1.5625 0 L 40.78125 -107.515625 L 80.953125 -107.515625 L 120.171875 0 Z M 48.59375 -39.21875 L 71.875 -39.21875 L 60.625 -77.5 L 60 -77.5 Z M 48.59375 -39.21875 "/></g></g></g><path stroke-linecap="butt" transform="matrix(0.75, 0, 0, 0.75, 125.832037, 58.094955)" fill="none" stroke-linejoin="miter" d="M 151.921877 69.165064 C 170.265628 69.165064 185.338546 72.878606 197.14063 80.30569 C 208.942714 87.732774 214.979173 98.737983 215.250006 113.316109 L 215.250006 115.8109 L 172.114587 115.8109 L 172.114587 114.9984 C 172.114587 110.826525 170.588545 107.347358 167.536462 104.566108 C 164.484378 101.790066 159.838544 100.399441 153.598961 100.399441 C 147.458335 100.399441 142.765627 101.310899 139.510418 103.144233 C 136.25521 104.941108 134.625001 107.165067 134.625001 109.805692 C 134.625001 113.540067 136.84896 116.316109 141.28646 118.149442 C 145.729169 119.946317 152.885419 121.810901 162.755211 123.743193 C 174.286462 126.118193 183.760421 128.592151 191.187505 131.170276 C 198.614589 133.717152 205.109381 137.904652 210.671881 143.737986 C 216.234381 149.566111 219.08334 157.487986 219.218757 167.487987 C 219.218757 184.446322 213.484381 197.029656 202.026047 205.232781 C 190.562505 213.404657 175.250004 217.493199 156.088544 217.493199 C 133.708334 217.493199 116.296875 213.743199 103.848957 206.248406 C 91.437498 198.758823 85.234373 185.498405 85.234373 166.472362 L 128.776042 166.472362 C 128.776042 173.696321 130.640626 178.529655 134.369793 180.972363 C 138.135418 183.378613 143.984377 184.581738 151.921877 184.581738 C 157.755211 184.581738 162.567711 183.956738 166.364587 182.70153 C 170.19792 181.446321 172.114587 178.883821 172.114587 175.019238 C 172.114587 171.524446 169.994795 168.915071 165.755212 167.185904 C 161.515628 165.456737 154.614586 163.607779 145.052085 161.639028 C 133.385418 159.16507 123.723959 156.57132 116.057292 153.857778 C 108.427083 151.144236 101.765624 146.670277 96.067707 140.430694 C 90.36979 134.154652 87.520831 125.675484 87.520831 114.9984 C 87.520831 99.295274 93.593748 87.732774 105.734374 80.30569 C 117.90625 72.878606 133.302084 69.165064 151.921877 69.165064 Z M 151.921877 69.165064 " stroke="#272727" stroke-width="29.690445" stroke-opacity="1" stroke-miterlimit="4"/><g fill="#c6ff35" fill-opacity="1"><g transform="translate(183.042971, 219.344945)"><g><path d="M 56.71875 -109.390625 C 70.46875 -109.390625 81.769531 -106.601562 90.625 -101.03125 C 99.488281 -95.457031 104.023438 -87.195312 104.234375 -76.25 L 104.234375 -74.375 L 71.875 -74.375 L 71.875 -75 C 71.875 -78.132812 70.726562 -80.742188 68.4375 -82.828125 C 66.144531 -84.910156 62.65625 -85.953125 57.96875 -85.953125 C 53.382812 -85.953125 49.867188 -85.273438 47.421875 -83.921875 C 44.972656 -82.566406 43.75 -80.898438 43.75 -78.921875 C 43.75 -76.097656 45.414062 -74.007812 48.75 -72.65625 C 52.082031 -71.300781 57.445312 -69.894531 64.84375 -68.4375 C 73.5 -66.664062 80.613281 -64.816406 86.1875 -62.890625 C 91.757812 -60.960938 96.628906 -57.8125 100.796875 -53.4375 C 104.960938 -49.0625 107.097656 -43.125 107.203125 -35.625 C 107.203125 -22.914062 102.90625 -13.488281 94.3125 -7.34375 C 85.71875 -1.195312 74.226562 1.875 59.84375 1.875 C 43.070312 1.875 30.023438 -0.9375 20.703125 -6.5625 C 11.378906 -12.1875 6.71875 -22.132812 6.71875 -36.40625 L 39.375 -36.40625 C 39.375 -30.988281 40.78125 -27.367188 43.59375 -25.546875 C 46.40625 -23.722656 50.78125 -22.8125 56.71875 -22.8125 C 61.09375 -22.8125 64.710938 -23.28125 67.578125 -24.21875 C 70.441406 -25.15625 71.875 -27.082031 71.875 -30 C 71.875 -32.601562 70.285156 -34.554688 67.109375 -35.859375 C 63.929688 -37.160156 58.75 -38.539062 51.5625 -40 C 42.8125 -41.875 35.570312 -43.828125 29.84375 -45.859375 C 24.113281 -47.890625 19.113281 -51.25 14.84375 -55.9375 C 10.570312 -60.625 8.4375 -66.976562 8.4375 -75 C 8.4375 -86.78125 12.992188 -95.457031 22.109375 -101.03125 C 31.222656 -106.601562 42.757812 -109.390625 56.71875 -109.390625 Z M 56.71875 -109.390625 "/></g></g></g><g clip-path="url(#9f10e58379)"><g clip-path="url(#e1ae6575e6)"><path fill="#000000" d="M 72.941406 203.027344 L 104.066406 214.289062 L 85.105469 266.691406 L 53.980469 255.429688 Z M 72.941406 203.027344 " fill-opacity="1" fill-rule="nonzero"/></g></g><path stroke-linecap="butt" transform="matrix(0.75, 0, 0, 0.75, 107.234815, 100.808936)" fill="none" stroke-linejoin="miter" d="M -0.000586744 1.999544 L 52.989 1.999544 " stroke="#000000" stroke-width="4" stroke-opacity="1" stroke-miterlimit="4"/><g fill="#000000" fill-opacity="1"><g transform="translate(105.869465, 265.255494)"><g><path d="M 13.5 -23.234375 L 22.875 0 L 17.1875 0 L 15.46875 -4.640625 L 6.625 -4.640625 L 4.90625 0 L -0.78125 0 L 8.59375 -23.234375 Z M 13.65625 -9.296875 L 11.078125 -16.0625 L 11.015625 -16.0625 L 8.421875 -9.296875 Z M 13.65625 -9.296875 "/></g></g></g><g fill="#000000" fill-opacity="1"><g transform="translate(129.791641, 265.255494)"><g><path d="M 1.6875 -23.234375 L 8.90625 -23.234375 C 11.082031 -23.234375 12.816406 -22.769531 14.109375 -21.84375 C 15.410156 -20.914062 16.0625 -19.410156 16.0625 -17.328125 C 16.0625 -14.992188 15.09375 -13.332031 13.15625 -12.34375 C 16.457031 -11.757812 18.109375 -9.804688 18.109375 -6.484375 C 18.109375 -4.523438 17.429688 -2.953125 16.078125 -1.765625 C 14.734375 -0.585938 12.878906 0 10.515625 0 L 1.6875 0 Z M 6.984375 -14.140625 L 7.40625 -14.140625 C 8.59375 -14.140625 9.476562 -14.34375 10.0625 -14.75 C 10.644531 -15.164062 10.9375 -15.847656 10.9375 -16.796875 C 10.9375 -18.367188 9.757812 -19.15625 7.40625 -19.15625 L 6.984375 -19.15625 Z M 6.984375 -4.078125 L 8.65625 -4.078125 C 11.238281 -4.078125 12.53125 -4.941406 12.53125 -6.671875 C 12.53125 -7.703125 12.207031 -8.441406 11.5625 -8.890625 C 10.914062 -9.347656 9.945312 -9.578125 8.65625 -9.578125 L 6.984375 -9.578125 Z M 6.984375 -4.078125 "/></g></g></g><g fill="#000000" fill-opacity="1"><g transform="translate(150.389026, 265.255494)"><g><path d="M 14.984375 -23.234375 L 14.984375 -18.59375 L 6.984375 -18.59375 L 6.984375 -13.96875 L 14.65625 -13.96875 L 14.65625 -9.328125 L 6.984375 -9.328125 L 6.984375 -4.640625 L 14.984375 -4.640625 L 14.984375 0 L 1.6875 0 L 1.6875 -23.234375 Z M 14.984375 -23.234375 "/></g></g></g><g fill="#000000" fill-opacity="1"><g transform="translate(168.565693, 265.255494)"><g/></g></g><g fill="#000000" fill-opacity="1"><g transform="translate(178.089829, 265.255494)"><g/></g></g><g fill="#000000" fill-opacity="1"><g transform="translate(187.613965, 265.255494)"><g/></g></g><g fill="#000000" fill-opacity="1"><g transform="translate(197.146014, 265.255494)"><g><path d="M 13.5 -23.234375 L 22.875 0 L 17.1875 0 L 15.46875 -4.640625 L 6.625 -4.640625 L 4.90625 0 L -0.78125 0 L 8.59375 -23.234375 Z M 13.65625 -9.296875 L 11.078125 -16.0625 L 11.015625 -16.0625 L 8.421875 -9.296875 Z M 13.65625 -9.296875 "/></g></g></g><g fill="#000000" fill-opacity="1"><g transform="translate(221.06819, 265.255494)"><g><path d="M 13.5 -23.234375 L 22.875 0 L 17.1875 0 L 15.46875 -4.640625 L 6.625 -4.640625 L 4.90625 0 L -0.78125 0 L 8.59375 -23.234375 Z M 13.65625 -9.296875 L 11.078125 -16.0625 L 11.015625 -16.0625 L 8.421875 -9.296875 Z M 13.65625 -9.296875 "/></g></g></g><g fill="#000000" fill-opacity="1"><g transform="translate(244.990367, 265.255494)"><g><path d="M 0.21875 -18.59375 L 0.21875 -23.234375 L 16.5625 -23.234375 L 16.5625 -18.59375 L 11.046875 -18.59375 L 11.046875 0 L 5.75 0 L 5.75 -18.59375 Z M 0.21875 -18.59375 "/></g></g></g><g fill="#000000" fill-opacity="1"><g transform="translate(263.615416, 265.255494)"><g><path d="M 6.984375 -9.328125 L 6.984375 0 L 1.6875 0 L 1.6875 -23.234375 L 6.984375 -23.234375 L 6.984375 -13.96875 L 14.484375 -13.96875 L 14.484375 -23.234375 L 19.78125 -23.234375 L 19.78125 0 L 14.484375 0 L 14.484375 -9.328125 Z M 6.984375 -9.328125 "/></g></g></g><g fill="#000000" fill-opacity="1"><g transform="translate(286.917726, 265.255494)"><g><path d="M 6.984375 -23.234375 L 6.984375 0 L 1.6875 0 L 1.6875 -23.234375 Z M 6.984375 -23.234375 "/></g></g></g><path stroke-linecap="butt" transform="matrix(0.75, 0, 0, 0.75, 107.234815, 272.366819)" fill="none" stroke-linejoin="miter" d="M -0.000586744 2.000492 L 249.181721 2.000492 " stroke="#000000" stroke-width="4" stroke-opacity="1" stroke-miterlimit="4"/><path stroke-linecap="butt" transform="matrix(0.75, 0, 0, 0.75, 160.877425, 235.566796)" fill="none" stroke-linejoin="miter" d="M 29.059268 12.47344 C 32.52281 12.47344 35.36656 13.171357 37.595727 14.572398 C 39.824894 15.97344 40.960311 18.051565 41.012394 20.806774 L 41.012394 21.275524 L 32.871769 21.275524 L 32.871769 21.124482 C 32.871769 20.332815 32.58531 19.676565 32.007185 19.155732 C 31.42906 18.62969 30.55406 18.364065 29.376977 18.364065 C 28.215518 18.364065 27.330102 18.541149 26.715518 18.884899 C 26.100935 19.22344 25.793643 19.645315 25.793643 20.145315 C 25.793643 20.84844 26.215518 21.374482 27.05406 21.718232 C 27.892602 22.056774 29.24156 22.41094 31.106144 22.775524 C 33.283227 23.223441 35.069685 23.686982 36.470727 24.176566 C 37.871769 24.655732 39.100936 25.447399 40.147811 26.546357 C 41.199894 27.650524 41.736353 29.145316 41.762394 31.030733 C 41.762394 34.233858 40.679061 36.608858 38.517602 38.155733 C 36.356144 39.6974 33.465519 40.468233 29.845727 40.468233 C 25.621768 40.468233 22.33531 39.765108 19.986351 38.348442 C 17.642601 36.931775 16.470726 34.431775 16.470726 30.838024 L 24.689476 30.838024 C 24.689476 32.202608 25.043643 33.114066 25.746768 33.577608 C 26.455102 34.030733 27.559268 34.2599 29.059268 34.2599 C 30.158227 34.2599 31.069685 34.140108 31.788435 33.900525 C 32.512394 33.66615 32.871769 33.181775 32.871769 32.452608 C 32.871769 31.791149 32.470727 31.301566 31.673852 30.973441 C 30.871769 30.645316 29.569685 30.296358 27.762393 29.926566 C 25.559268 29.457816 23.736351 28.968233 22.288435 28.457816 C 20.850935 27.947399 19.590518 27.103649 18.517601 25.921357 C 17.439476 24.739066 16.903018 23.140107 16.903018 21.124482 C 16.903018 18.16094 18.048851 15.97344 20.340518 14.572398 C 22.637393 13.171357 25.543643 12.47344 29.059268 12.47344 Z M 29.059268 12.47344 " stroke="#272727" stroke-width="5.604995" stroke-opacity="1" stroke-miterlimit="4"/><g fill="#ffffff" fill-opacity="1"><g transform="translate(171.963362, 265.566794)"><g><path d="M 10.703125 -20.65625 C 13.304688 -20.65625 15.441406 -20.128906 17.109375 -19.078125 C 18.785156 -18.023438 19.640625 -16.460938 19.671875 -14.390625 L 19.671875 -14.046875 L 13.5625 -14.046875 L 13.5625 -14.15625 C 13.5625 -14.75 13.34375 -15.238281 12.90625 -15.625 C 12.476562 -16.019531 11.820312 -16.21875 10.9375 -16.21875 C 10.070312 -16.21875 9.410156 -16.085938 8.953125 -15.828125 C 8.492188 -15.578125 8.265625 -15.265625 8.265625 -14.890625 C 8.265625 -14.359375 8.578125 -13.960938 9.203125 -13.703125 C 9.828125 -13.453125 10.84375 -13.191406 12.25 -12.921875 C 13.875 -12.585938 15.210938 -12.238281 16.265625 -11.875 C 17.316406 -11.507812 18.234375 -10.910156 19.015625 -10.078125 C 19.804688 -9.253906 20.210938 -8.132812 20.234375 -6.71875 C 20.234375 -4.320312 19.421875 -2.539062 17.796875 -1.375 C 16.179688 -0.21875 14.015625 0.359375 11.296875 0.359375 C 8.128906 0.359375 5.664062 -0.171875 3.90625 -1.234375 C 2.144531 -2.296875 1.265625 -4.175781 1.265625 -6.875 L 7.4375 -6.875 C 7.4375 -5.851562 7.703125 -5.171875 8.234375 -4.828125 C 8.765625 -4.484375 9.585938 -4.3125 10.703125 -4.3125 C 11.535156 -4.3125 12.21875 -4.398438 12.75 -4.578125 C 13.289062 -4.753906 13.5625 -5.113281 13.5625 -5.65625 C 13.5625 -6.15625 13.257812 -6.523438 12.65625 -6.765625 C 12.0625 -7.015625 11.085938 -7.273438 9.734375 -7.546875 C 8.078125 -7.898438 6.707031 -8.269531 5.625 -8.65625 C 4.550781 -9.039062 3.609375 -9.675781 2.796875 -10.5625 C 1.992188 -11.445312 1.59375 -12.644531 1.59375 -14.15625 C 1.59375 -16.382812 2.453125 -18.023438 4.171875 -19.078125 C 5.890625 -20.128906 8.066406 -20.65625 10.703125 -20.65625 Z M 10.703125 -20.65625 "/></g></g></g></svg>